<svg width="103" height="36" viewBox="0 0 103 36" fill="none" xmlns="http://www.w3.org/2000/svg">
<rect x="40" width="61" height="36" rx="9" fill="#BF292A"/>
<path d="M8.343 27H5.751V19.575L0.081 8.964H2.997L7.047 17.469L11.205 8.964H13.932L8.343 19.575V27ZM22.1088 25.623C21.0648 26.775 19.6968 27.351 18.0048 27.351C16.3128 27.351 14.9628 26.784 13.9548 25.65C12.9468 24.516 12.4428 22.716 12.4428 20.25C12.4428 17.766 12.9648 15.948 14.0088 14.796C15.0708 13.644 16.4478 13.068 18.1398 13.068C19.8318 13.068 21.1728 13.635 22.1628 14.769C23.1708 15.903 23.6748 17.712 23.6748 20.196C23.6748 22.662 23.1528 24.471 22.1088 25.623ZM18.0858 15.066C15.9798 15.066 14.9268 16.785 14.9268 20.223C14.9268 23.643 15.9708 25.353 18.0588 25.353C18.9228 25.353 19.6608 24.948 20.2728 24.138C20.8848 23.328 21.1908 21.978 21.1908 20.088C21.1908 18.198 20.9208 16.893 20.3808 16.173C19.8588 15.435 19.0938 15.066 18.0858 15.066ZM29.2317 27.351C27.7557 27.351 26.7297 26.955 26.1537 26.163C25.5777 25.353 25.2897 24.201 25.2897 22.707V13.338H27.7197V22.653C27.7197 23.553 27.8367 24.219 28.0707 24.651C28.3047 25.065 28.7727 25.272 29.4747 25.272C30.1947 25.272 30.8877 25.164 31.5537 24.948C32.2377 24.714 32.7957 24.399 33.2277 24.003V13.419H35.6577V27.243H33.6867L33.4167 25.785C32.8947 26.217 32.2557 26.586 31.4997 26.892C30.7437 27.198 29.9877 27.351 29.2317 27.351Z" fill="black"/>
<path d="M50.8849 27.351C49.4809 27.351 48.5539 27.063 48.1039 26.487C47.6539 25.893 47.4289 24.885 47.4289 23.463V15.255L44.7559 15.12L44.9989 13.527L47.4829 13.338L47.7259 10.098L49.9129 9.693V13.338H53.9089L53.6659 15.255H49.8859V23.706C49.8859 24.084 49.8949 24.372 49.9129 24.57C49.9489 24.75 50.0479 24.921 50.2099 25.083C50.3899 25.227 50.7679 25.299 51.3439 25.299C51.9199 25.299 52.4959 25.2 53.0719 25.002L53.5309 26.811C52.6849 27.171 51.8029 27.351 50.8849 27.351ZM63.7689 25.623C62.7249 26.775 61.3569 27.351 59.6649 27.351C57.9729 27.351 56.6229 26.784 55.6149 25.65C54.6069 24.516 54.1029 22.716 54.1029 20.25C54.1029 17.766 54.6249 15.948 55.6689 14.796C56.7309 13.644 58.1079 13.068 59.7999 13.068C61.4919 13.068 62.8329 13.635 63.8229 14.769C64.8309 15.903 65.3349 17.712 65.3349 20.196C65.3349 22.662 64.8129 24.471 63.7689 25.623ZM59.7459 15.066C57.6399 15.066 56.5869 16.785 56.5869 20.223C56.5869 23.643 57.6309 25.353 59.7189 25.353C60.5829 25.353 61.3209 24.948 61.9329 24.138C62.5449 23.328 62.8509 21.978 62.8509 20.088C62.8509 18.198 62.5809 16.893 62.0409 16.173C61.5189 15.435 60.7539 15.066 59.7459 15.066ZM72.0799 25.299C74.3299 25.299 75.4549 23.508 75.4549 19.926C75.4549 16.722 74.5459 15.12 72.7279 15.12C71.7019 15.12 70.6219 15.516 69.4879 16.308V24.921C70.3879 25.173 71.2519 25.299 72.0799 25.299ZM69.2989 14.445C70.4869 13.527 71.8189 13.068 73.2949 13.068C74.7709 13.068 75.9229 13.68 76.7509 14.904C77.5789 16.128 77.9929 17.793 77.9929 19.899C77.9929 24.867 76.0129 27.351 72.0529 27.351C71.1169 27.351 70.2619 27.171 69.4879 26.811V32.778L67.0579 33.048V13.311H69.1099L69.2989 14.445ZM82.1125 27H79.6555V13.446L82.1125 13.203V27ZM79.1695 9.315C79.1695 8.865 79.3315 8.487 79.6555 8.181C79.9795 7.857 80.3665 7.695 80.8165 7.695C81.2665 7.695 81.6445 7.857 81.9505 8.181C82.2745 8.487 82.4365 8.865 82.4365 9.315C82.4365 9.765 82.2745 10.161 81.9505 10.503C81.6445 10.827 81.2665 10.989 80.8165 10.989C80.3665 10.989 79.9795 10.827 79.6555 10.503C79.3315 10.161 79.1695 9.765 79.1695 9.315ZM87.3129 27.351C86.1429 27.351 85.2069 27.009 84.5049 26.325C83.8209 25.641 83.4789 24.723 83.4789 23.571C83.4789 22.815 83.6409 22.176 83.9649 21.654C84.2889 21.132 84.7119 20.745 85.2339 20.493C86.1699 20.043 87.1509 19.818 88.1769 19.818C89.2029 19.818 90.1569 19.863 91.0389 19.953V17.847C91.0389 16.803 90.8589 16.092 90.4989 15.714C90.1569 15.318 89.4909 15.12 88.5009 15.12C87.5109 15.12 86.3319 15.363 84.9639 15.849L84.3969 14.148C84.9189 13.824 85.6029 13.563 86.4489 13.365C87.3129 13.167 88.0599 13.068 88.6899 13.068C90.4359 13.068 91.6689 13.446 92.3889 14.202C93.1089 14.958 93.4689 16.227 93.4689 18.009V24.57C93.4689 25.2 93.6849 25.515 94.1169 25.515C94.4049 25.515 94.8009 25.434 95.3049 25.272L95.7099 26.784C95.0979 27.18 94.3059 27.378 93.3339 27.378C92.3619 27.378 91.6599 26.919 91.2279 26.001C90.8319 26.379 90.2739 26.703 89.5539 26.973C88.8519 27.225 88.1049 27.351 87.3129 27.351ZM87.8259 25.434C88.9599 25.434 90.0309 25.11 91.0389 24.462V21.33C90.6069 21.258 89.9049 21.222 88.9329 21.222C86.8269 21.222 85.7649 21.924 85.7469 23.328C85.7469 24.732 86.4399 25.434 87.8259 25.434Z" fill="white"/>
</svg>
